<svg width="100" height="100" viewBox="0 0 100 100" fill="none" xmlns="http://www.w3.org/2000/svg">
<rect width="100" height="100" fill="#EBC7DD"/>
<path d="M48.0485 60.1278L43.584 55.707C43.584 55.707 39.6879 59.8949 39.4188 60.3046C39.4046 60.3187 38.9141 61.0491 38.9141 61.877C38.9141 62.6357 39.2133 63.4635 39.6384 63.8888L47.053 71.6682L49.4207 69.4568L44.1949 64.0373L48.0484 60.1335L48.0485 60.1278Z" fill="#D85A83"/>
<path d="M57.3915 55.7078L52.927 60.1286L56.7805 64.0324L51.5547 69.4519L53.9224 71.6633L61.337 63.8839C61.7637 63.4516 62.0612 62.6221 62.0612 61.8721C62.0612 61.0426 61.5637 60.3138 61.5566 60.2997C61.2857 59.8954 57.3914 55.7021 57.3914 55.7021L57.3915 55.7078Z" fill="#D85A83"/>
<path d="M57.3442 41.4174C56.1152 40.1697 55.6388 39.8591 54.1371 39.8591H46.4582C45.3496 39.8591 44.7457 40.1786 43.6708 41.3327L34.7578 50.635L37.0689 52.8957L44.236 45.1728V51.5349H56.6837V45.2433L64.1762 52.8514L66.4377 50.6489L57.3457 41.4316L57.3442 41.4174Z" fill="#D85A83"/>
<path d="M50.6025 37.0976C53.5741 37.0976 55.345 35.0716 55.345 31.6852C55.345 28.5827 53.4395 26.4915 50.6025 26.4915C47.7654 26.4915 45.8672 28.5739 45.8672 31.6852C45.8672 35.0788 47.6381 37.0976 50.6025 37.0976Z" fill="#D85A83"/>
</svg>
